<svg id="Layer_1" data-name="Layer 1" xmlns="http://www.w3.org/2000/svg" xmlns:xlink="http://www.w3.org/1999/xlink" viewBox="0 0 720 288"><defs><style>.cls-1{fill:#4d4d4d;}.cls-2{fill:url(#linear-gradient);}.cls-3{fill:url(#linear-gradient-2);}.cls-4{fill:url(#linear-gradient-3);}.cls-5{fill:url(#linear-gradient-4);}</style><linearGradient id="linear-gradient" x1="18.79" y1="56.31" x2="220.48" y2="260.12" gradientUnits="userSpaceOnUse"><stop offset="0" stop-color="#4ac0a4"/><stop offset="1" stop-color="#70bde9"/></linearGradient><linearGradient id="linear-gradient-2" x1="31.1" y1="44.12" x2="232.79" y2="247.94" xlink:href="#linear-gradient"/><linearGradient id="linear-gradient-3" x1="43.77" y1="31.58" x2="245.47" y2="235.39" xlink:href="#linear-gradient"/><linearGradient id="linear-gradient-4" x1="30.82" y1="44.4" x2="232.52" y2="248.21" xlink:href="#linear-gradient"/></defs><path class="cls-1" d="M308.12,180.81h-10.2v-8.4h-.24q-4.8,9.72-19.8,9.72-13.68,0-21.12-9.3t-7.44-23.22q0-13.92,7.32-23.1t21-9.18a29.84,29.84,0,0,1,11.28,2.34,17.55,17.55,0,0,1,8.76,7.38h.24V95.13h10.2Zm-48-30.48a26.65,26.65,0,0,0,4.92,16.2q4.92,6.74,14.28,6.72,9.6,0,14.28-6.84t4.68-16.56q0-10-4.86-16.74t-14.7-6.78q-9.72,0-14.16,6.9T260.12,150.33Z"/><path class="cls-1" d="M320.48,149.85q0-14.28,7.92-23.39t22.2-9.13q14.28,0,22.2,9.13t7.92,23.39q0,14.16-7.92,23.22t-22.2,9.06q-14.28,0-22.2-9.06T320.48,149.85Zm16.32-17.22q-5.52,6.3-5.52,17.22T336.8,167a18.38,18.38,0,0,0,27.6,0q5.52-6.22,5.52-17.16t-5.52-17.22a18.26,18.26,0,0,0-27.6,0Z"/><path class="cls-1" d="M434.84,138.69q-2.52-12.34-15.36-12.36-10.2,0-14.76,6.84t-4.56,17.4q0,9.62,4.5,16.14t13.62,6.54q15,0,17-15.12h10.44q-1.69,11.66-8.64,17.82t-18.72,6.18q-13.92,0-21.48-8.58t-7.56-23q0-14.64,7.56-23.94t21.72-9.3q11,0,18.36,5.34t8.4,16Z"/><path class="cls-1" d="M453.79,149.85q0-14.28,7.92-23.39t22.21-9.13q14.26,0,22.19,9.13T514,149.85q0,14.16-7.92,23.22t-22.19,9.06q-14.3,0-22.21-9.06T453.79,149.85Zm16.32-17.22q-5.52,6.3-5.52,17.22T470.11,167a18.38,18.38,0,0,0,27.6,0q5.52-6.22,5.52-17.16t-5.52-17.22a18.26,18.26,0,0,0-27.6,0Z"/><path class="cls-1" d="M532.27,161.25q.24,6.38,4.92,9.18A22.36,22.36,0,0,0,549,173.25q15,0,15-9.24a7.35,7.35,0,0,0-3-6.06,17.61,17.61,0,0,0-7.5-3.24c-3-.6-6.26-1.33-9.78-2.22s-6.78-1.83-9.78-2.88a16.25,16.25,0,0,1-7.5-5.28,14.39,14.39,0,0,1-3-9.36q0-8.64,7-13.14a29.17,29.17,0,0,1,16.2-4.5q11.4,0,18.06,4.38T572,136.77h-10.2q-.36-5.51-4.5-8a19.13,19.13,0,0,0-9.9-2.46,22,22,0,0,0-9.36,1.8,6.27,6.27,0,0,0-3.84,6.12,6.58,6.58,0,0,0,.36,2.22,4.68,4.68,0,0,0,1.14,1.8,15.47,15.47,0,0,0,1.62,1.44,9.16,9.16,0,0,0,2.28,1.26c1,.41,1.8.74,2.52,1a23.35,23.35,0,0,0,2.94.9c1.24.32,2.24.57,3,.72l3.24.72c1.4.33,2.46.56,3.18.72a59.79,59.79,0,0,1,7.56,2.1,37.88,37.88,0,0,1,6.3,3.06,12.64,12.64,0,0,1,4.8,5.1,16.1,16.1,0,0,1,1.62,7.38,16.64,16.64,0,0,1-4.14,11.64,20.71,20.71,0,0,1-9.72,6.18,45,45,0,0,1-12.54,1.62q-11.4,0-18.6-5t-7.68-15.9Z"/><path class="cls-1" d="M641,180.57a14.43,14.43,0,0,1-7.32,1.56q-8.64,0-8.64-9.48-7.92,9.48-21.84,9.48-9.12,0-14.82-4.2t-5.7-13.08a19.89,19.89,0,0,1,1.68-8.58,13.06,13.06,0,0,1,5-5.58,29.54,29.54,0,0,1,6.48-3.06,64,64,0,0,1,7.86-1.86c1.52-.31,3.32-.64,5.4-1s3.76-.55,5-.72a34.91,34.91,0,0,0,4.14-.78,10.78,10.78,0,0,0,3.42-1.32,6.72,6.72,0,0,0,2-2.1,5.87,5.87,0,0,0,.84-3.24q0-10.31-13.8-10.32-14.88,0-15.48,11.76h-10.2q.48-10.8,7.68-15.78t18.6-5q23.28,0,23.28,17v31.91a20.45,20.45,0,0,0,.48,5.58q.48,1.38,2.76,1.38a11.67,11.67,0,0,0,3.12-.6Zm-16.56-31.8c-1.6,1.2-4.28,2.13-8,2.76s-7.26,1.1-10.5,1.38a16.91,16.91,0,0,0-8.64,3.18,9.36,9.36,0,0,0-3.78,8q0,4.68,3.42,6.9a15.37,15.37,0,0,0,8.58,2.22q9.24,0,14.1-4.44t4.86-9.6Z"/><path class="cls-1" d="M650.47,118.77h9.6v9.84h.24q6.24-11.27,20.16-11.28,11.52,0,16.44,5.94T701.83,140v40.8h-10.2v-42c0-3.84-1.12-6.87-3.36-9.12s-5.32-3.36-9.24-3.36q-9,0-13.68,5.34t-4.68,14.1v35h-10.2Z"/><path class="cls-2" d="M150.9,164.33v15.91a10.53,10.53,0,1,0,9.72.3V169.19h34a69.73,69.73,0,0,1-60.22,44l-.17-36.72a10.52,10.52,0,1,0-9.71.35l.17,36.31a69.73,69.73,0,0,1-59.38-44H97.79v11.05a10.53,10.53,0,1,0,9.71.3c0-4.94,0-12.76,0-16.21v-4.85H52.09l1.76,6.18a79.12,79.12,0,0,0,152.17,0l1.76-6.18H150.9Zm-48.53,27.82a2.43,2.43,0,1,1,2.43-2.43A2.43,2.43,0,0,1,102.37,192.15ZM129,164.93a2.43,2.43,0,1,1-2.43,2.43A2.43,2.43,0,0,1,129,164.93Zm26.47,27.22a2.43,2.43,0,1,1,2.43-2.43A2.43,2.43,0,0,1,155.48,192.15Z"/><path class="cls-3" d="M222.08,105.07A100.34,100.34,0,1,0,229.94,144,99.8,99.8,0,0,0,222.08,105.07ZM129.94,234.28A90.28,90.28,0,1,1,220.22,144,90.39,90.39,0,0,1,129.94,234.28Z"/><path class="cls-4" d="M181.79,84.28a78.76,78.76,0,0,0-40.17-18.51l-5.57-.83v41.74h15.81A10.52,10.52,0,1,0,152,97h-6.2V76.44a69.72,69.72,0,0,1,48.34,41.17H65.76a69.84,69.84,0,0,1,47.65-41V97H107a10.53,10.53,0,1,0,.11,9.72h16V65l-5.61.88a79.18,79.18,0,0,0-63.28,55.18l-1.9,6.26H207.54l-1.9-6.26A79,79,0,0,0,181.79,84.28ZM161.25,99.49a2.43,2.43,0,1,1-2.43,2.43A2.43,2.43,0,0,1,161.25,99.49Zm-63.53,4.86a2.43,2.43,0,1,1,2.43-2.43A2.43,2.43,0,0,1,97.72,104.35Z"/><path class="cls-5" d="M191.92,139.14H67a10.52,10.52,0,1,0,0,9.72H191.81a10.52,10.52,0,1,0,.11-9.72ZM57.7,146.43A2.43,2.43,0,1,1,60.13,144,2.43,2.43,0,0,1,57.7,146.43Zm145.93-2.32a2.43,2.43,0,1,1-2.43-2.43A2.43,2.43,0,0,1,203.63,144.11Z"/></svg>